<svg xmlns="http://www.w3.org/2000/svg" viewBox="0 0 313.03 313.03"><defs><style>.cls-1{fill:#1b1b1b;}.cls-2{fill:#fff;}</style></defs><g id="Capa_2" data-name="Capa 2"><g id="Layer_1" data-name="Layer 1"><circle class="cls-1" cx="156.52" cy="156.52" r="156.52"/><path class="cls-2" d="M131.25,213.1a135.54,135.54,0,0,1-31.43-9.45v.91c0,19.56,15.86,31.36,35.42,31.36h42.55c19.56,0,35.42-11.8,35.42-31.36v-.25a152.22,152.22,0,0,1-56.52,11A145.5,145.5,0,0,1,131.25,213.1Z"/><path class="cls-2" d="M208.23,77.12H104.8a5,5,0,0,0-5,5V193A124.36,124.36,0,0,0,133,203.49c18.81,3.29,47.67,4.14,80.25-9.61V82.09A5,5,0,0,0,208.23,77.12Zm-53.78,99-23.77,10.67a2.79,2.79,0,0,1-3.7-1.4L116.3,161.6a2.8,2.8,0,0,1,1.41-3.7l23.77-10.68a2.8,2.8,0,0,1,3.7,1.41l10.67,23.77A2.79,2.79,0,0,1,154.45,176.1ZM198,128.42l-7.08,26a2.88,2.88,0,0,1-3.56,2l-26-7.07a2.9,2.9,0,0,1-2-3.56l7.08-26a2.89,2.89,0,0,1,3.55-2l26,7.08A2.89,2.89,0,0,1,198,128.42Zm6.53-22s-16.1,6.77-53.1-2c-22-5.19-45.37,2-45.37,2V85.92h98.47Z"/></g></g></svg>